<?xml version="1.0" encoding="UTF-8"?>
<svg width="601px" height="121px" viewBox="0 0 601 121" version="1.1" xmlns="http://www.w3.org/2000/svg" xmlns:xlink="http://www.w3.org/1999/xlink">
    <title>logo-01</title>
    <g id="Page-1" stroke="none" stroke-width="1" fill="none" fill-rule="evenodd">
        <g id="logo-01" fill="#FFFFFF" fill-rule="nonzero">
            <path d="M26.1,46.2 C31.6,46.2 36.1,47.6 39.6,50.3 C43.1,53 44.8,56.8 44.8,61.8 C44.8,63.4 44.4,65.1 43.6,66.7 C42.8,68.3 41.8,69.7 40.6,70.9 C39.4,72.1 38.1,73.1 36.8,73.9 C35.5,74.7 34.3,75.3 33.2,75.5 C35,78 37,80.5 39,83.2 C41,85.8 42.6,87.8 43.8,89.2 L45.5,91.3 C46.7,92.8 48,94.1 49.4,95.2 C50.8,96.3 52,97.1 53,97.7 C54.1,98.2 55.1,98.7 56.2,99 C57.3,99.3 58,99.5 58.5,99.5 C59,99.6 59.3,99.6 59.6,99.6 C59.8,100 59.8,100.5 59.8,101.3 C59.8,102.1 59.7,102.6 59.6,102.7 C56.3,102.9 52.6,103 48.4,103 C45.4,103 42.8,102.4 40.6,101.1 C38.4,99.8 36.6,98.3 35.4,96.6 L21.6,78.1 C21,77.2 20.5,76.8 20.1,76.8 L18.8,76.8 L18.8,89.9 C18.8,94.1 19,96.8 19.5,97.9 C19.8,98.7 21.6,99.2 25,99.4 C25.2,99.7 25.3,100.3 25.3,101 C25.3,101.8 25.2,102.3 25,102.5 C21.1,102.1 17,101.9 12.8,101.9 C8.7,101.9 4.7,102.1 0.8,102.5 C0.6,102.2 0.5,101.7 0.5,101 C0.5,100.2 5.9,98.6 6.2,97.8 C6.7,96.7 6.9,94 6.9,89.8 L6.9,58.4 C6.9,54.2 6.7,51.5 6.2,50.4 C5.9,49.7 4.1,49.3 0.7,49 C0.5,48.7 0.4,48.1 0.4,47.4 C0.4,46.6 0.5,46.1 0.7,45.9 C3.3,46.1 7.3,46.2 12.9,46.2 C14,46.2 16,46.2 18.9,46.1 C21.9,46.2 24.3,46.2 26.1,46.2 M32,62.5 C32,60.7 31.9,59 31.6,57.6 C31.4,56.2 30.9,54.8 30.3,53.6 C29.7,52.3 28.8,51.3 27.7,50.6 C26.5,49.9 25.1,49.6 23.4,49.6 C20.9,49.6 19.5,49.9 19.1,50.6 C18.8,51.3 18.7,53 18.7,55.8 L18.7,73.6 L22.6,73.6 C25.1,73.6 27.3,72.5 29.1,70.5 C31.1,68.4 32,65.7 32,62.5 M82.6,47.9 C86.1,46.4 89.8,45.6 93.4,45.6 C97.1,45.6 100.7,46.4 104.2,47.9 C107.7,49.4 110.8,51.5 113.5,54 C116.2,56.6 118.3,59.6 119.9,63.2 C121.5,66.8 122.3,70.5 122.3,74.4 C122.3,78.3 121.5,82 119.9,85.6 C118.3,89.2 116.1,92.2 113.5,94.8 C110.8,97.4 107.7,99.4 104.2,100.9 C100.7,102.4 97,103.2 93.4,103.2 C89.7,103.2 86.1,102.4 82.6,100.9 C79.1,99.4 76,97.3 73.3,94.8 C70.6,92.2 68.5,89.2 66.9,85.6 C65.3,82 64.5,78.3 64.5,74.4 C64.5,70.5 65.3,66.8 66.9,63.2 C68.5,59.6 70.7,56.5 73.3,54 C75.9,51.5 79,49.4 82.6,47.9 M91.4,49.2 C89.5,49.2 87.7,49.6 86.2,50.5 C84.7,51.4 83.4,52.6 82.4,54 C81.4,55.4 80.6,57.2 79.9,59.1 C79.2,61.1 78.8,63.1 78.5,65.1 C78.2,67.1 78.1,69.2 78.1,71.4 C78.1,73.6 78.2,75.9 78.5,78 C78.8,80.2 79.2,82.3 79.7,84.5 C80.2,86.6 81,88.6 81.9,90.4 C82.8,92.2 83.9,93.8 85.1,95.1 C86.3,96.5 87.8,97.6 89.5,98.3 C91.2,99.1 93.1,99.5 95.2,99.5 C97.2,99.5 98.9,99.1 100.5,98.2 C102.1,97.3 103.4,96.2 104.4,94.7 C105.4,93.3 106.2,91.6 106.9,89.6 C107.6,87.7 108,85.7 108.3,83.7 C108.6,81.7 108.7,79.6 108.7,77.4 C108.7,74.7 108.5,72.1 108.1,69.5 C107.7,66.9 107.1,64.4 106.2,61.9 C105.3,59.4 104.2,57.2 102.9,55.4 C101.6,53.5 99.9,52 97.9,50.9 C96,49.8 93.8,49.2 91.4,49.2 M167.3,50.4 L133.6,100.5 C133.5,100.6 133.6,100.8 133.8,101.1 C134,101.4 134.3,101.7 134.7,102 C135.1,102.3 135.5,102.4 135.8,102.4 L179.6,102.3 C179.9,100.9 180.7,98.3 181.9,94.7 C183.2,91.1 183.9,88.8 184.2,87.9 C184.1,87.8 183.7,87.7 183.2,87.6 C182.6,87.5 182.1,87.4 181.7,87.4 C181,87.4 180.6,87.6 180.5,87.9 C179.8,89.7 179.1,91.2 178.4,92.3 C177.7,93.4 176.9,94.4 175.9,95.4 C173.9,97.4 171.2,98.4 167.8,98.4 L149.4,98.4 L157.6,86 C163.1,77.8 168.6,69.5 174.1,61.2 C179.6,52.9 182.4,48.6 182.5,48.4 C182.5,47.9 182.4,47.4 182.2,46.7 C182,46 181.8,45.6 181.6,45.6 C174.7,46.1 168.1,46.4 161.8,46.5 L150,46.6 C148.9,46.6 147,46.5 144.1,46.4 C141.2,46.3 139.5,46.1 138.9,46 C138.6,47.6 138.3,49.4 138,51.2 C137.6,53.1 137.2,55.1 136.8,57.2 C136.4,59.4 136,61 135.8,62.1 C136.1,62.4 136.9,62.5 138.3,62.5 C138.9,62.5 139.3,62.3 139.4,62 C139.5,61.7 139.7,61.2 140,60.4 C140.3,59.6 140.5,59.1 140.6,58.7 C140.7,58.3 140.9,57.8 141.2,57.1 C141.5,56.4 141.8,55.9 142,55.5 C142.2,55.1 142.5,54.7 142.9,54.1 C143.3,53.5 143.7,53.1 144.1,52.8 C144.5,52.5 145,52.2 145.5,51.8 C146.1,51.4 146.6,51.1 147.2,50.9 C147.8,50.7 148.5,50.6 149.3,50.4 C150.1,50.3 150.9,50.2 151.8,50.2 L167.3,50.2 L167.3,50.4 Z M208.4,46.4 C202.8,46.4 198.8,46.3 196.2,46.1 C196,46.4 195.9,46.9 195.9,47.6 C195.9,48.4 196,48.9 196.2,49.2 C199.6,49.5 201.4,49.9 201.7,50.6 C202.2,51.7 202.4,54.4 202.4,58.6 L202.4,90 C202.4,94.2 202.2,96.9 201.7,98 C201.4,98.7 199.6,99.2 196.2,99.4 C196,99.7 195.9,100.3 195.9,101 C195.9,101.8 196,102.3 196.2,102.5 C198.4,102.4 212.3,102.4 237.8,102.4 C237.9,101.7 238.1,100.9 238.3,100 C238.5,99.1 238.8,98 239.2,96.8 C239.6,95.6 239.9,94.6 240.2,93.9 C240.4,93.2 240.8,92.1 241.4,90.5 C242,89 242.3,88 242.4,87.7 C242.3,87.6 241.9,87.5 241.4,87.4 C240.8,87.3 240.3,87.2 239.9,87.2 C239.2,87.2 238.8,87.4 238.7,87.7 C237.3,91.4 235.7,94.2 234.1,95.8 C232.2,97.7 229.6,98.6 226.2,98.6 L220.6,98.6 C219.3,98.6 218.2,98.5 217.1,98.2 C216,97.9 215.3,97.5 215.1,96.9 C214.6,95.8 214.4,93.5 214.4,90.2 L214.4,77 C214.4,76.2 216.4,75.8 220.5,75.8 C223.8,75.8 226,76 227,76.4 C228.3,77 229.2,78.7 230,81.6 C230.1,82.1 230.5,82.3 231.2,82.3 C232,82.3 232.5,82.2 232.7,82 L232.7,65.6 C232.4,65.3 231.9,65.2 231.1,65.2 C230.5,65.2 230.2,65.4 230.1,65.9 C229.4,68.4 228.6,70 227.7,70.8 C226.8,71.5 225.1,71.9 222.6,71.9 L218.1,71.9 C217.2,71.9 216.3,71.8 215.6,71.6 C214.8,71.4 214.5,71.2 214.5,70.9 L214.5,55.7 C214.5,52.9 214.6,51.2 214.9,50.5 C215.2,49.8 216.6,49.5 219.2,49.5 L226.3,49.5 C227.6,49.5 228.7,49.7 229.6,50.1 C230.6,50.5 231.4,51.2 232.2,52 C232.9,52.9 233.5,53.8 234,54.7 C234.5,55.6 235,56.7 235.5,58.1 C235.7,58.6 236.1,58.8 236.9,58.8 C237.9,58.8 238.6,58.7 238.9,58.4 C238.8,57.7 238.5,56.4 238.1,54.6 C237.7,52.8 237.4,51.2 237.1,49.8 C236.8,48.4 236.6,47 236.4,45.8 C235.3,45.8 230.8,45.9 222.8,46.1 C214.4,46.3 209.7,46.4 208.4,46.4 M265.3,46.5 C263.8,46.5 262.2,46.4 260.3,46.3 C258.4,46.1 257,46.1 256.1,46 C256,46.1 255.9,46.6 255.8,47.4 C255.7,48.2 255.8,48.8 256.1,49.2 C256.9,49.2 257.9,49.4 259.2,49.8 C260.5,50.2 261.3,50.6 261.6,51.1 C261.9,51.5 262,52.1 262,53 C262,53.7 261.9,56.5 261.7,61.4 C261.5,66.3 261.3,71.4 261.1,76.8 C260.9,82.1 260.7,86.3 260.6,89.2 C260.5,90.1 260.4,91.5 260.2,93.3 C260,95.2 259.8,96.3 259.6,96.7 C259.2,97.7 258.1,98.4 256.4,99 C254.7,99.5 253.3,99.8 252.4,99.8 C252.3,100.2 252.2,100.8 252.2,101.4 C252.2,102.1 252.3,102.5 252.5,102.8 C253.5,102.7 255.1,102.6 257.5,102.4 C259.8,102.2 261.7,102.1 263.2,102.1 C264.6,102.1 266.6,102.2 269.1,102.4 C271.6,102.6 273.1,102.7 273.8,102.8 C273.9,102.3 273.9,101.8 273.9,101.1 C273.9,100.4 273.8,99.9 273.6,99.6 C272.8,99.6 271.4,99.3 269.5,98.8 C267.5,98.3 266.4,97.6 266.2,96.9 C266.1,96.6 266,95.7 265.9,94.4 C265.8,93 265.8,91.9 265.8,91 C265.9,87.1 266.1,83.7 266.2,81 C266.3,78.3 266.4,74.9 266.5,70.8 C266.6,66.7 266.8,62.4 266.9,57.9 L285.9,102.5 C286.2,102.6 286.5,102.7 286.7,102.7 C287.4,102.7 288.1,102.2 288.9,101.3 C289.7,100.4 290.2,99.7 290.4,99.1 L305.4,58.5 C305.6,58.1 305.7,57.9 305.8,57.9 C306.2,57.9 306.4,58.6 306.4,60.1 L307.2,89.8 C307.3,90.8 307.3,92.6 307.3,95 C307.3,96.3 307.1,97.2 306.6,98 C306.3,98.5 305.4,98.9 304,99.2 C302.6,99.5 301.5,99.6 300.6,99.6 C300.5,99.9 300.4,100.5 300.5,101.3 C300.5,102.1 300.6,102.6 300.8,102.7 C301.4,102.7 303.4,102.6 306.8,102.3 C310.2,102.1 312.7,102 314.2,102 C315.7,102 317.9,102.1 320.7,102.3 C323.6,102.5 325.3,102.6 325.7,102.7 C325.8,102.3 325.9,101.7 325.8,101.1 C325.8,100.5 325.7,99.9 325.5,99.5 C324.8,99.5 323.7,99.4 322.4,99.1 C321.1,98.8 320.3,98.5 320.1,98 C320,97.8 319.9,97.5 319.8,97.3 C319.7,97 319.6,96.7 319.6,96.4 C319.5,96.1 319.5,95.8 319.5,95.5 C319.5,95.3 319.4,94.9 319.4,94.5 C319.4,94.1 319.3,93.8 319.3,93.6 C319.3,93.4 319.2,93.1 319.2,92.6 C319.2,92.1 319.1,91.8 319.1,91.6 C319.1,91.4 319.1,91.1 319,90.5 C319,89.9 318.9,89.6 318.9,89.4 C318.7,85.2 318.5,78.5 318.2,69.3 C317.9,60.1 317.7,54.8 317.7,53.6 C317.7,52.5 317.7,51.8 317.9,51.3 C318.1,50.8 318.4,50.4 318.9,50.1 C319.3,49.8 320,49.6 321,49.4 C322,49.2 322.8,49.1 323.3,49.1 C323.5,48.7 323.5,48.1 323.4,47.3 C323.3,46.5 323.1,46 322.9,45.8 C322.2,45.8 320.7,45.9 318.2,46.1 C315.8,46.3 314,46.4 312.9,46.4 C308.3,46.4 305.2,46.3 303.7,46.1 L303.3,47.7 C303,48.7 302.6,50.1 302.2,51.7 C301.7,53.3 301.3,54.6 300.9,55.7 C298.5,62.5 295.1,71.2 290.8,81.6 C290.8,81.7 290.7,81.8 290.7,81.9 C290.6,82 290.5,82.1 290.5,82.1 C290.4,82.1 290.3,82 290.2,81.9 C283.6,67 278.3,55 274.1,45.8 C273.4,45.8 272.1,45.9 270,46.1 C268,46.4 266.4,46.5 265.3,46.5 M342.6,91 L360.7,49.2 C361,48.6 361.5,47.9 362.2,47.1 C362.9,46.3 363.5,46 363.9,46 C364.3,46 364.6,46.1 365,46.2 C365.4,46.3 365.6,46.5 365.7,46.6 L383.2,89.8 C383.6,90.7 384,91.8 384.5,93.1 C385,94.4 385.3,95.3 385.6,95.9 C385.9,96.7 386.5,97.4 387.1,97.9 C387.8,98.5 388.5,98.8 389.3,99 C390.1,99.2 390.7,99.3 391.1,99.4 C391.6,99.5 392,99.5 392.3,99.5 C392.5,99.9 392.6,100.4 392.7,101.2 C392.7,102 392.7,102.5 392.5,102.6 C392,102.6 390.3,102.5 387.5,102.2 C384.7,102 382.5,101.9 381.1,101.9 C379.9,101.9 378.6,101.9 377,102 C375.4,102.1 373.7,102.2 371.8,102.3 C370,102.4 368.8,102.5 368.2,102.5 C368,102.3 367.9,101.7 367.9,100.8 C367.9,99.9 368,99.4 368.2,99.4 C369,99.4 369.9,99.3 370.9,99 C371.9,98.7 372.7,98.4 373.2,97.9 C373.7,97.5 374,97 374,96.5 C374,96.3 373.6,95.1 372.7,92.9 C371.8,90.7 371,88.6 370.1,86.6 L368.8,83.5 C368.6,83.3 368.4,83.2 368.2,83.2 C367.1,83.1 364.4,83.1 360,83.1 C356.1,83.1 353.1,83.1 351.1,83.2 C350.8,83.2 350.6,83.3 350.5,83.6 C349.1,86.8 348.1,89.2 347.4,90.8 C346.1,93.9 345.5,95.9 345.5,96.6 C345.5,97.1 345.8,97.6 346.4,98 C347,98.4 347.7,98.7 348.5,98.9 C349.3,99.1 350,99.2 350.7,99.3 C351.3,99.4 351.8,99.4 352,99.4 C352.2,99.7 352.3,100.3 352.3,101.1 C352.3,101.9 352.2,102.4 352.1,102.6 C348.1,102.1 345.1,101.9 342.9,101.9 C340.7,101.9 337.6,102.1 333.6,102.6 C333.4,102.4 333.3,102 333.3,101.3 C333.2,100.6 333.3,100 333.5,99.5 C334.1,99.5 335.2,99.2 336.7,98.6 C338.2,98 339.1,97.4 339.5,96.8 C340.6,95.4 341.5,93.4 342.6,91 M359.7,61.9 L352.5,78.6 C352.5,78.8 352.6,78.9 352.7,78.9 C354.4,79.1 356.8,79.2 359.8,79.2 C362.6,79.2 364.9,79.1 366.6,79 C366.7,79 366.7,79 366.8,78.9 C366.9,78.8 366.9,78.7 366.9,78.6 L366.9,78.5 L359.7,61.9 Z M427.2,46.2 C432.7,46.2 437.2,47.6 440.7,50.3 C444.2,53 445.9,56.8 445.9,61.8 C445.9,63.4 445.5,65.1 444.7,66.7 C443.9,68.3 442.9,69.7 441.7,70.9 C440.5,72.1 439.2,73.1 437.9,73.9 C436.6,74.7 435.4,75.3 434.3,75.5 C436.1,78 438.1,80.5 440.1,83.2 C442.1,85.8 443.7,87.8 444.9,89.2 L446.6,91.3 C447.8,92.8 449.1,94.1 450.5,95.2 C451.9,96.3 453.1,97.1 454.1,97.7 C455.1,98.2 456.2,98.7 457.3,99 C458.4,99.3 459.1,99.5 459.6,99.5 C460.1,99.6 460.4,99.6 460.7,99.6 C460.9,100 460.9,100.5 460.9,101.3 C460.9,102.1 460.8,102.6 460.7,102.7 C457.4,102.9 453.7,103 449.5,103 C446.5,103 443.9,102.4 441.7,101.1 C439.5,99.8 437.7,98.3 436.5,96.6 L422.7,78.1 C422.1,77.2 421.6,76.8 421.2,76.8 L420,76.8 L420,89.9 C420,94.1 420.2,96.8 420.7,97.9 C421,98.7 422.8,99.2 426.2,99.4 C426.4,99.7 426.5,100.3 426.5,101 C426.5,101.8 426.4,102.3 426.2,102.5 C422.3,102.1 418.2,101.9 414,101.9 C409.9,101.9 405.9,102.1 402,102.5 C401.8,102.2 401.7,101.7 401.7,101 C401.7,100.2 401.8,99.7 402,99.4 C405.4,99.1 407.2,98.6 407.5,97.9 C408,96.8 408.2,94.1 408.2,89.9 L408.2,58.5 C408.2,54.3 408,51.6 407.5,50.5 C407.2,49.8 405.4,49.4 402,49.1 C401.8,48.8 401.7,48.2 401.7,47.5 C401.7,46.7 401.8,46.2 402,46 C404.6,46.2 408.6,46.3 414.2,46.3 C415.3,46.3 417.3,46.3 420.2,46.2 C423.1,46.2 425.4,46.2 427.2,46.2 M433.2,62.5 C433.2,60.7 433.1,59 432.8,57.6 C432.6,56.2 432.1,54.8 431.5,53.6 C430.9,52.3 430,51.3 428.9,50.6 C427.7,49.9 426.3,49.6 424.6,49.6 C422.1,49.6 420.6,49.9 420.3,50.6 C420,51.3 419.9,53 419.9,55.8 L419.9,73.6 L423.8,73.6 C426.3,73.6 428.5,72.5 430.3,70.5 C432.3,68.4 433.2,65.7 433.2,62.5 M485.6,58.7 C485.6,54.5 485.8,51.8 486.3,50.7 C486.6,49.9 488.4,49.4 491.8,49.2 C492,48.9 492.1,48.3 492.1,47.6 C492.1,46.8 492,46.3 491.8,46.1 C487.9,46.5 483.9,46.7 479.8,46.7 C475.6,46.7 471.5,46.5 467.6,46.1 C467.4,46.4 467.3,46.9 467.3,47.6 C467.3,48.4 467.4,48.9 467.6,49.2 C471,49.5 472.8,50 473.1,50.7 C473.6,51.8 473.8,54.5 473.8,58.7 L473.8,90.1 C473.8,94.3 473.6,97 473.1,98.1 C472.8,98.9 471,99.4 467.6,99.6 C467.4,99.9 467.3,100.5 467.3,101.2 C467.3,102 467.4,102.5 467.6,102.7 C471.5,102.3 475.5,102.1 479.6,102.1 C483.8,102.1 487.9,102.3 491.8,102.7 C492,102.4 492.1,101.9 492.1,101.2 C492.1,100.4 492,99.9 491.8,99.6 C488.4,99.3 486.6,98.8 486.3,98.1 C485.8,97 485.6,94.3 485.6,90.1 M516.3,46.6 C512,46.6 508,46.4 504.1,46 C503.9,46.3 503.8,46.8 503.8,47.5 C503.8,48.3 503.9,48.8 504.1,49.1 C507.4,49.4 509.3,49.9 509.6,50.6 C510.1,51.7 510.3,54.4 510.3,58.6 L510.3,90.8 C510.3,92.9 510.3,94.7 510.3,96 C510.3,97.3 510.3,98.9 510.2,100.6 C510.2,102.4 510.1,103.8 510,104.9 C509.9,106 509.7,107.2 509.6,108.5 C509.4,109.8 509.2,110.8 508.9,111.6 C508.6,112.4 508.3,113.1 507.9,113.8 C507.5,114.5 507.1,115 506.5,115.3 C506,115.6 505.4,115.7 504.7,115.7 C504.6,115.7 504.4,115.7 504.3,115.7 C504.2,115.7 504.1,115.6 503.9,115.6 C503.8,115.6 503.6,115.5 503.5,115.4 C503.3,115.3 503.2,115.2 503.1,115.2 C503,115.1 502.9,115 502.7,114.9 C502.5,114.7 502.4,114.6 502.3,114.6 C502.2,114.5 502.1,114.4 501.9,114.2 C501.7,114 501.6,113.9 501.5,113.8 C501.4,113.7 501.3,113.6 501.1,113.4 C500.9,113.2 500.8,113 500.7,113 C498.8,111.1 497.2,110.2 495.8,110.2 C494.5,110.2 493.3,110.8 492.2,111.9 C491.2,113.1 490.6,114.4 490.6,115.9 C490.6,116.2 490.6,116.4 490.6,116.6 C490.6,116.8 490.7,117 490.7,117.2 C490.8,117.4 490.8,117.6 490.9,117.7 C491,117.8 491,118 491.2,118.2 C491.3,118.4 491.4,118.5 491.4,118.6 C491.4,118.7 491.5,118.8 491.7,119 C491.8,119.2 491.9,119.3 492,119.4 C492.4,119.7 493.1,120.1 494.2,120.4 C495.2,120.7 496.1,120.9 496.9,120.9 C504.7,120.9 510.9,118.2 515.4,112.8 C519.9,107.4 522.2,99.8 522.2,90.2 L522.2,58.7 C522.2,54.5 522.4,51.8 522.9,50.7 C523.2,49.9 525,49.4 528.4,49.2 C528.6,48.9 528.7,48.3 528.7,47.6 C528.7,46.8 528.6,46.3 528.4,46.1 C524.5,46.4 520.5,46.6 516.3,46.6 M550.2,46.6 C549,46.6 547.9,46.6 546.7,46.5 C545.6,46.4 544.4,46.3 543.1,46.2 C541.9,46.1 541,46 540.5,46 C540.3,46.2 540.2,46.8 540.3,47.7 C540.3,48.6 540.5,49.1 540.7,49.1 C541.4,49.1 542.4,49.3 543.8,49.6 C545.2,50 546,50.4 546.3,50.9 C547.3,52.4 547.8,55 547.8,58.6 L547.8,88.8 C547.8,90.5 547.7,92.2 547.5,93.9 C547.3,95.6 547.1,96.8 546.8,97.4 C546.5,98.1 545.5,98.6 543.9,99 C542.2,99.4 540.9,99.6 540,99.6 C539.9,99.6 539.9,99.8 539.8,100.2 C539.7,100.6 539.7,101.1 539.7,101.6 C539.7,102.1 539.8,102.5 539.9,102.7 C540.9,102.6 542.5,102.5 544.8,102.3 C547,102.1 548.9,102 550.3,102 C551.8,102 553.7,102.1 556.3,102.3 C558.8,102.5 560.4,102.6 561.1,102.7 C561.2,102.4 561.3,101.8 561.3,101.1 C561.3,100.4 561.2,99.8 561,99.5 C560.1,99.5 558.8,99.3 557.1,98.9 C555.3,98.5 554.3,98 554.1,97.3 C553.9,96.7 553.7,95.5 553.5,93.8 C553.3,92.1 553.2,90.5 553.2,89 L553.2,58.2 L587.9,100.9 C588.9,102.2 589.8,102.9 590.5,102.9 C591.7,102.9 592.4,102.8 592.6,102.6 C592.4,96.7 592.3,92.7 592.3,90.7 L592.3,61.7 C592.3,60.1 592.4,58 592.6,55.7 C592.8,53.3 593,51.8 593.2,51.3 C593.4,50.8 594.1,50.3 595.2,50 C596.4,49.7 597.4,49.5 598.2,49.4 C599,49.3 599.7,49.3 600.2,49.3 C600.4,48.9 600.5,48.4 600.5,47.7 C600.5,47 600.4,46.4 600.3,46.1 C599.6,46.1 598.1,46.2 595.5,46.5 C593,46.7 591,46.8 589.5,46.8 C588.1,46.8 586.2,46.7 584,46.5 C581.8,46.3 580.1,46.2 579.1,46.1 C579,46.3 578.9,46.7 578.9,47.2 C578.9,47.7 578.9,48.2 579,48.6 C579.1,49 579.1,49.2 579.2,49.2 C580.3,49.2 581.6,49.3 583.3,49.6 C584.9,49.9 585.9,50.4 586.1,51 C586.4,51.6 586.6,53.1 586.8,55.5 C587,57.9 587.1,60 587.1,61.9 L587.1,77.8 C587.1,79.7 587,80.9 586.9,81.3 C585.1,79.1 582.4,75.8 578.8,71.4 C575.2,67.1 572.4,63.6 570.3,61 C568.2,58.4 566.1,55.6 563.9,52.7 C561.8,49.8 560.3,47.6 559.5,46 C556.3,46.4 553.2,46.6 550.2,46.6 M12.7,5.5 C11.8,5.5 10.9,6 9.9,7 C8.9,8 8.2,9 7.7,10 C7.7,10 7.7,10 7.6,10.1 C7.6,10.1 7.6,10.1 7.5,10.1 C7.5,10.1 7.5,10 7.5,10 C7.5,9.8 7.5,9.1 7.6,8.1 C7.7,7 7.7,6.4 7.8,6.2 C7.8,6.1 7.7,6 7.6,5.8 C7.5,5.6 7.4,5.5 7.3,5.5 C5.7,6.4 3.7,6.9 1.3,7.3 C1.2,7.4 1.2,7.6 1.2,7.9 C1.2,8.2 1.2,8.3 1.3,8.4 C1.5,8.4 1.8,8.4 2.1,8.4 C2.4,8.4 2.8,8.5 3.2,8.6 C3.6,8.7 3.9,8.9 4,9.1 C4.1,9.4 4.2,10.2 4.2,11.3 L4.2,19.1 C4.2,20.8 4.1,21.8 4,22.2 C3.9,22.4 3.6,22.6 2.9,22.7 C2.3,22.8 1.7,22.9 1.3,22.9 C1.2,23 1.2,23.2 1.2,23.5 C1.2,23.8 1.2,24 1.3,24.1 C4.1,24 5.7,23.9 6,23.9 C6.6,23.9 8.3,24 11.2,24.1 C11.3,24 11.3,23.8 11.3,23.5 C11.3,23.2 11.2,23 11.2,22.9 C10.7,22.9 10,22.8 9.1,22.7 C8.2,22.6 7.7,22.4 7.6,22.2 C7.5,21.8 7.4,20.7 7.4,19.1 L7.4,12.7 C7.4,12.1 7.8,11.3 8.5,10.4 C9.2,9.5 10,9 10.8,9 C11.3,9 11.8,9.2 12.3,9.5 C12.3,9.5 12.5,9.6 12.7,9.8 C12.9,10 13.1,10.1 13.3,10.2 C13.5,10.3 13.6,10.3 13.8,10.3 C14.1,10.3 14.4,10.1 14.7,9.7 C15,9.3 15.2,8.8 15.2,8.1 C15.2,7.7 15.1,7.3 15,7 C14.8,6.7 14.5,6.4 14,6.1 C13.8,5.7 13.3,5.5 12.7,5.5 M20.5,13.4 C20.4,15.9 21.1,17.9 22.4,19.3 C23.7,20.7 25.4,21.4 27.3,21.4 C28.3,21.4 29.2,21.2 30,20.7 C30.8,20.2 31.4,19.7 31.9,19.2 C31.9,19.2 31.9,19.2 32,19.3 C32.1,19.4 32.1,19.4 32.2,19.5 C32.2,19.6 32.3,19.7 32.3,19.8 C32.3,20 32.2,20.3 32.1,20.5 C31.9,20.9 31.6,21.2 31.3,21.6 C31,22 30.5,22.3 30,22.7 C29.5,23.1 28.9,23.4 28.2,23.7 C27.5,23.9 26.8,24.1 26,24.1 C23.6,24.1 21.6,23.3 20,21.6 C18.4,20 17.7,17.9 17.7,15.4 C17.7,14.1 18,12.8 18.5,11.5 C19,10.3 19.7,9.2 20.5,8.3 C21.3,7.4 22.2,6.7 23.1,6.2 C24.1,5.7 25,5.4 25.9,5.4 C26.8,5.4 27.7,5.5 28.5,5.8 C29.3,6.1 29.9,6.5 30.3,6.9 C30.7,7.3 31.1,7.8 31.4,8.3 C31.7,8.8 31.9,9.3 32,9.8 C32.1,10.2 32.2,10.7 32.2,11 C32.2,11.6 32.1,12.1 32,12.4 C31.9,12.7 31.6,12.9 31.2,12.9 C30.6,12.9 28.8,13 25.8,13.1 C22.6,13.4 20.9,13.4 20.5,13.4 M20.7,11.9 L27.5,11.9 C28.1,11.9 28.4,11.6 28.5,10.9 C28.5,10.6 28.5,10.3 28.3,9.9 C28.2,9.5 28,9.1 27.7,8.6 C27.5,8.2 27.1,7.8 26.6,7.5 C26.1,7.2 25.6,7 25,7 C24.3,7 23.7,7.2 23.2,7.5 C22.7,7.8 22.2,8.2 21.9,8.7 C21.6,9.2 21.3,9.7 21.1,10.1 C20.9,10.6 20.8,11 20.7,11.3 C20.7,11.7 20.7,11.9 20.7,11.9 M41.9,5.5 C40.3,5.5 38.9,6 37.7,6.9 C36.5,7.8 35.9,9.1 35.9,10.6 C35.9,11.6 36.2,12.5 36.8,13.2 C37.4,13.9 38.1,14.5 39.1,15.1 C39.4,15.3 39.9,15.5 40.5,15.9 C41.2,16.2 41.6,16.5 42,16.7 C42.3,16.9 42.7,17.2 43.1,17.5 C43.5,17.8 43.8,18.2 44,18.6 C44.2,19 44.3,19.4 44.3,19.9 C44.3,20.8 44,21.6 43.5,22.1 C42.9,22.6 42.2,22.9 41.3,22.9 C40.3,22.9 39.3,22.5 38.5,21.7 C37.7,20.9 37.1,20 36.8,19 C36.7,18.9 36.6,18.9 36.4,18.9 C36.1,18.9 35.9,19 35.6,19.2 C35.6,19.8 35.7,20.5 35.8,21.5 C36,22.5 36.1,23.1 36.3,23.6 C36.7,23.7 37.2,23.8 37.9,23.9 C38.6,24.1 39.1,24.2 39.6,24.2 C40.1,24.3 40.6,24.3 41.2,24.3 C42.9,24.3 44.4,23.7 45.7,22.7 C47,21.6 47.6,20.2 47.6,18.6 C47.6,18.2 47.5,17.9 47.5,17.6 C47.4,17.3 47.2,17 47,16.7 C46.8,16.4 46.6,16.1 46.4,15.9 C46.2,15.7 45.9,15.5 45.5,15.2 C45.1,14.9 44.8,14.7 44.6,14.6 C44.4,14.5 44.1,14.3 43.7,14 C43.3,13.8 43,13.6 42.9,13.5 C42.7,13.4 42.4,13.2 42,13 C41.6,12.8 41.3,12.6 41.1,12.5 C40.9,12.4 40.7,12.2 40.4,12 C40.1,11.8 39.9,11.5 39.8,11.4 C39.7,11.2 39.6,11 39.5,10.7 C39.4,10.4 39.3,10.1 39.3,9.7 C39.3,8.9 39.6,8.3 40.1,7.8 C40.6,7.3 41.3,7.1 42.3,7.1 C43.1,7.1 43.8,7.5 44.5,8.3 C45.1,9.1 45.6,10 45.8,10.9 C46,11 46.2,11.1 46.5,11.1 C46.8,11.1 46.9,11 46.9,10.9 C46.8,9.1 46.7,7.6 46.4,6.3 C46,6.3 45.4,6.2 44.5,6 C43.3,5.6 42.6,5.5 41.9,5.5 M55.9,0.3 C55.9,0.2 55.9,0.2 55.8,0.2 C55.7,0.2 55.6,0.2 55.5,0.2 C55.4,0.2 55.3,0.3 55.2,0.3 C55.2,0.3 55,0.5 54.7,0.8 C54.4,1.1 54,1.5 53.6,2 C53.2,2.5 52.9,2.8 52.6,3.1 L52.6,5.7 L51.1,5.7 C51,5.8 50.8,6 50.5,6.4 C50.2,6.8 50,7 50,7 C50,7.3 50.1,7.4 50.2,7.4 L52.6,7.4 L52.6,19.5 C52.6,20.4 52.7,21.1 53,21.7 C53.2,22.3 53.6,22.8 54,23.1 C54.4,23.4 54.9,23.7 55.4,23.8 C55.9,23.9 56.4,24 57,24 C57.6,24 58.3,23.8 58.9,23.5 C59.5,23.2 60,22.9 60.4,22.6 C60.7,22.3 61.1,22 61.3,21.7 C61.4,21.6 61.5,21.4 61.5,21.1 C61.5,20.9 61.5,20.8 61.4,20.8 C60.5,21.4 59.6,21.8 58.7,21.8 C56.9,21.8 55.9,20.7 55.9,18.4 L55.9,7.5 L60.9,7.5 C61.3,7.1 61.5,6.7 61.5,6.2 C61.5,5.9 61.4,5.7 61.3,5.7 L55.9,5.7 L55.9,0.3 L55.9,0.3 Z M72.2,5.6 C73.4,5.6 74.5,6.2 75.4,7.3 C76.3,8.4 76.8,9.8 76.8,11.3 L76.8,19.9 C76.8,21.2 77.2,21.9 78.1,21.9 C78.2,21.9 78.3,21.9 78.5,21.9 C78.6,21.9 78.7,21.9 78.8,21.8 C78.9,21.8 79,21.7 79.1,21.7 C79.2,21.6 79.3,21.6 79.3,21.6 C79.3,21.6 79.4,21.5 79.4,21.5 C79.4,21.5 79.5,21.4 79.5,21.4 C79.6,21.4 79.7,21.5 79.7,21.7 C79.7,22 79.6,22.3 79.5,22.5 C79.2,22.8 78.7,23.1 78,23.5 C77.3,23.9 76.8,24.1 76.4,24.1 C75.8,24.1 75.3,23.8 74.8,23.3 C74.3,22.7 74,22.1 73.9,21.4 C73.5,21.8 72.7,22.4 71.5,23.1 C70.3,23.8 69.4,24.2 68.8,24.2 C67.4,24.2 66.3,23.7 65.3,22.8 C64.4,21.9 63.9,20.7 63.9,19.4 C63.9,18.6 64.1,17.9 64.6,17.3 C65,16.7 65.5,16.3 66,16.1 C66.5,15.9 67.3,15.6 68.5,15.2 C69.7,14.8 70.7,14.4 71.5,14.1 C72.3,13.8 72.9,13.6 73.3,13.4 C73.5,13.3 73.6,13.2 73.7,13.1 C73.8,13 73.8,12.7 73.8,12.4 L73.8,11.3 C73.8,10.3 73.4,9.4 72.7,8.6 C72,7.8 71.2,7.3 70.2,7.3 C69.5,7.3 69,7.5 68.6,7.9 C68.3,8.3 68,9 67.9,9.8 C67.7,11.1 67,11.8 65.9,11.8 C65.5,11.8 65.1,11.6 64.9,11.3 C64.6,10.9 64.5,10.5 64.5,10.1 C64.5,10 64.5,9.8 64.6,9.6 C64.7,9.4 64.7,9.2 64.8,9.1 C65.7,8.3 66.8,7.5 68.2,6.8 C69.5,5.9 70.9,5.6 72.2,5.6 M70,21.8 C70.7,21.8 71.5,21.6 72.3,21.1 C73.2,20.6 73.6,20.3 73.6,20.1 L73.6,14.4 C71.4,15 70.2,15.4 69.7,15.6 C68.9,15.9 68.3,16.3 67.8,16.9 C67.3,17.5 67.1,18.1 67.1,18.9 C67.1,19.7 67.4,20.4 67.9,20.9 C68.5,21.6 69.2,21.8 70,21.8 M94.7,19.4 C94.7,19.9 94.3,20.4 93.5,20.9 C92.7,21.4 91.8,21.7 90.9,21.7 C89.5,21.7 88.4,21.2 87.7,20.1 C87,19.1 86.7,17.4 86.7,15.2 L86.7,10.9 L86.7,9.1 C86.7,7.6 86.8,6.6 87,6.2 C87,6.1 87,5.9 86.8,5.7 C86.7,5.5 86.6,5.4 86.5,5.4 C85,5.9 83.1,6.2 80.8,6.2 C80.7,6.3 80.7,6.5 80.7,6.8 C80.7,7.1 80.7,7.2 80.8,7.3 C82,7.3 82.8,7.6 83.1,8.1 C83.3,8.5 83.4,9.3 83.4,10.4 L83.4,15.7 C83.4,16.5 83.4,17.2 83.5,17.9 C83.6,18.6 83.7,19.3 84,20.1 C84.2,20.9 84.5,21.5 84.9,22.1 C85.3,22.6 85.8,23.1 86.4,23.5 C87,23.9 87.8,24 88.6,24 C89.6,24 90.7,23.7 91.8,23.1 C93,22.5 93.9,21.9 94.5,21.2 L94.6,21.4 L94.6,23.3 C94.6,23.5 94.6,23.6 94.7,23.8 C94.8,23.9 94.8,24 94.9,24 L95.3,23.9 C95.6,23.8 95.9,23.7 96.3,23.6 C96.7,23.5 97.1,23.4 97.6,23.3 C98.1,23.2 98.5,23.1 99.1,23 C99.6,22.9 100.1,22.9 100.5,22.8 C100.6,22.8 100.7,22.7 100.7,22.5 C100.8,22.3 100.8,22.2 100.8,22.1 C100.8,21.8 100.8,21.7 100.7,21.6 C100.7,21.6 100.6,21.6 100.3,21.6 C100,21.6 99.8,21.6 99.5,21.5 C99.2,21.5 99,21.4 98.7,21.3 C98.4,21.2 98.3,21 98.2,20.9 C98,20 97.9,18.9 97.9,17.7 L97.9,11 L97.9,9.1 C97.9,7.7 98,6.8 98.2,6.4 C98.2,6.3 98.1,6.1 98,5.8 C97.9,5.5 97.8,5.4 97.7,5.4 C96.2,5.9 94.3,6.2 92,6.2 C91.9,6.3 91.9,6.5 91.9,6.8 C91.9,7.1 91.9,7.2 92,7.3 C93.3,7.3 94,7.6 94.3,8.1 C94.5,8.5 94.6,9.3 94.6,10.4 L94.6,19.4 L94.7,19.4 Z M114.3,5.5 C113.4,5.5 112.5,6 111.5,7 C110.5,8 109.8,9 109.3,10 C109.3,10 109.3,10 109.2,10.1 C109.2,10.1 109.2,10.1 109.1,10.1 C109.1,10.1 109.1,10 109.1,10 C109.1,9.8 109.1,9.1 109.2,8.1 C109.3,7 109.3,6.4 109.4,6.2 C109.4,6.1 109.3,6 109.2,5.8 C109.1,5.6 109,5.5 108.9,5.5 C107.3,6.4 105.3,6.9 102.9,7.3 C102.8,7.4 102.8,7.6 102.8,7.9 C102.8,8.2 102.8,8.3 102.9,8.4 C103.1,8.4 103.4,8.4 103.7,8.4 C104,8.4 104.4,8.5 104.8,8.6 C105.2,8.7 105.5,8.9 105.6,9.1 C105.7,9.4 105.8,10.2 105.8,11.3 L105.8,19.1 C105.8,20.8 105.7,21.8 105.6,22.2 C105.5,22.4 105.2,22.6 104.5,22.7 C103.9,22.8 103.3,22.9 102.9,22.9 C102.8,23 102.8,23.2 102.8,23.5 C102.8,23.8 102.8,24 102.9,24.1 C105.7,24 107.3,23.9 107.6,23.9 C108.2,23.9 109.9,24 112.8,24.1 C112.9,24 112.9,23.8 112.9,23.5 C112.9,23.2 112.8,23 112.8,22.9 C112.3,22.9 111.6,22.8 110.7,22.7 C109.8,22.6 109.3,22.4 109.2,22.2 C109.1,21.8 109,20.7 109,19.1 L109,12.7 C109,12.1 109.4,11.3 110.1,10.4 C110.8,9.5 111.6,9 112.4,9 C112.9,9 113.4,9.2 113.9,9.5 C113.9,9.5 114.1,9.6 114.3,9.8 C114.5,10 114.7,10.1 114.9,10.2 C115.1,10.3 115.2,10.3 115.4,10.3 C115.7,10.3 116,10.1 116.3,9.7 C116.6,9.3 116.8,8.8 116.8,8.1 C116.8,7.7 116.7,7.3 116.6,7 C116.4,6.7 116.1,6.4 115.6,6.1 C115.3,5.7 114.8,5.5 114.3,5.5 M127.6,5.6 C128.8,5.6 129.9,6.2 130.8,7.3 C131.7,8.4 132.2,9.8 132.2,11.3 L132.2,19.9 C132.2,21.2 132.6,21.9 133.5,21.9 C133.6,21.9 133.7,21.9 133.9,21.9 C134,21.9 134.1,21.9 134.2,21.8 C134.3,21.8 134.4,21.7 134.5,21.7 C134.6,21.6 134.7,21.6 134.7,21.6 C134.7,21.6 134.8,21.5 134.8,21.5 C134.8,21.5 134.9,21.4 134.9,21.4 C135,21.4 135.1,21.5 135.1,21.7 C135.1,22 135,22.3 134.9,22.5 C134.6,22.8 134.1,23.1 133.4,23.5 C132.7,23.9 132.2,24.1 131.8,24.1 C131.2,24.1 130.7,23.8 130.2,23.3 C129.7,22.7 129.4,22.1 129.3,21.4 C128.9,21.8 128.1,22.4 126.9,23.1 C125.7,23.8 124.8,24.2 124.2,24.2 C122.8,24.2 121.7,23.7 120.7,22.8 C119.8,21.9 119.3,20.7 119.3,19.4 C119.3,18.6 119.5,17.9 120,17.3 C120.4,16.7 120.9,16.3 121.4,16.1 C121.9,15.9 122.7,15.6 123.9,15.2 C125.1,14.8 126.1,14.4 126.9,14.1 C127.7,13.8 128.3,13.6 128.7,13.4 C128.9,13.3 129,13.2 129.1,13.1 C129.2,13 129.2,12.7 129.2,12.4 L129.2,11.3 C129.2,10.3 128.8,9.4 128.1,8.6 C127.4,7.8 126.6,7.3 125.6,7.3 C124.9,7.3 124.4,7.5 124,7.9 C123.7,8.3 123.4,9 123.3,9.8 C123.1,11.1 122.4,11.8 121.3,11.8 C120.9,11.8 120.5,11.6 120.3,11.3 C120,10.9 119.9,10.5 119.9,10.1 C119.9,10 119.9,9.8 120,9.6 C120.1,9.4 120.1,9.2 120.2,9.1 C121.1,8.3 122.2,7.5 123.6,6.8 C124.9,5.9 126.3,5.6 127.6,5.6 M125.4,21.8 C126.1,21.8 126.9,21.6 127.7,21.1 C128.6,20.6 129,20.3 129,20.1 L129,14.4 C126.8,15 125.6,15.4 125.1,15.6 C124.3,15.9 123.7,16.3 123.2,16.9 C122.7,17.5 122.5,18.1 122.5,18.9 C122.5,19.7 122.8,20.4 123.3,20.9 C123.9,21.6 124.6,21.8 125.4,21.8 M149,5.5 C148.1,5.5 147.1,5.9 145.9,6.6 C144.7,7.3 143.9,8 143.3,8.6 C143.2,8.7 143.2,8.7 143.2,8.7 C143.1,8.7 143.1,8.6 143.1,8.5 C143.1,8.1 143.2,7.3 143.4,6.1 C143.4,6 143.3,5.8 143.2,5.7 C143.1,5.5 143,5.4 142.9,5.4 C141.3,6.3 139.3,6.8 136.9,7.2 C136.8,7.3 136.8,7.5 136.8,7.8 C136.8,8.1 136.8,8.2 136.9,8.3 C137.1,8.3 137.4,8.3 137.7,8.3 C138,8.3 138.4,8.4 138.8,8.5 C139.2,8.6 139.5,8.8 139.6,9 C139.7,9.3 139.8,10.1 139.8,11.3 L139.8,18.9 C139.8,20.5 139.7,21.5 139.6,22 C139.5,22.2 139.2,22.4 138.5,22.5 C137.9,22.6 137.3,22.7 136.9,22.7 C136.8,22.8 136.8,23 136.8,23.3 C136.8,23.6 136.8,23.8 136.9,23.9 C137.3,23.9 137.8,23.9 138.4,23.8 C139,23.8 139.5,23.7 140,23.7 C140.5,23.7 140.9,23.7 141.4,23.7 C141.5,23.7 143,23.8 145.9,23.9 C146,23.8 146,23.6 146,23.3 C146,23 145.9,22.8 145.9,22.7 C145.5,22.7 145,22.6 144.3,22.5 C143.7,22.4 143.3,22.2 143.2,22 C143.1,21.6 143,20.5 143,18.9 L143,10.2 C143,10.1 143.2,9.8 143.7,9.4 C144.1,9 144.7,8.7 145.3,8.4 C145.9,8.1 146.5,7.9 147,7.9 C148.6,7.9 149.7,8.4 150.2,9.3 C150.8,10.3 151,12.1 151,14.7 L151,18.9 C151,20.5 150.9,21.5 150.8,22 C150.7,22.2 150.4,22.4 149.7,22.5 C149.1,22.6 148.5,22.7 148.1,22.7 C148,22.8 148,23 148,23.3 C148,23.6 148,23.8 148.1,23.9 C148.5,23.9 149,23.9 149.6,23.8 C150.2,23.8 150.7,23.7 151.2,23.7 C151.7,23.7 152.1,23.7 152.6,23.7 C152.7,23.7 154.2,23.8 157.1,23.9 C157.2,23.8 157.2,23.6 157.2,23.3 C157.2,23 157.1,22.8 157.1,22.7 C156.7,22.7 156.2,22.6 155.5,22.5 C154.9,22.4 154.5,22.2 154.4,22 C154.3,21.6 154.2,20.5 154.2,18.9 L154.2,14.3 C154.2,13 154.2,11.9 154.1,11.1 C154,10.2 153.9,9.4 153.6,8.6 C153.4,7.8 153.1,7.3 152.7,6.8 C152.3,6.4 151.8,6 151.2,5.8 C150.7,5.6 149.9,5.5 149,5.5 M164.4,0.3 C164.4,0.2 164.4,0.2 164.3,0.2 C164.2,0.2 164.1,0.2 164,0.2 C163.9,0.2 163.8,0.3 163.7,0.3 C163.7,0.3 163.5,0.5 163.2,0.8 C162.9,1.1 162.5,1.5 162.1,2 C161.7,2.5 161.4,2.8 161.1,3.1 L161.1,5.7 L159.6,5.7 C159.5,5.8 159.3,6 159,6.4 C158.7,6.8 158.5,7 158.5,7 C158.5,7.3 158.6,7.4 158.7,7.4 L161.1,7.4 L161.1,19.5 C161.1,20.4 161.2,21.1 161.5,21.7 C161.7,22.3 162.1,22.8 162.5,23.1 C162.9,23.4 163.4,23.7 163.9,23.8 C164.4,23.9 164.9,24 165.5,24 C166.1,24 166.8,23.8 167.4,23.5 C168,23.2 168.5,22.9 168.9,22.6 C169.2,22.3 169.6,22 169.8,21.7 C169.9,21.6 170,21.4 170,21.1 C170,20.9 170,20.8 169.9,20.8 C169,21.4 168.1,21.8 167.2,21.8 C165.4,21.8 164.4,20.7 164.4,18.4 L164.4,7.5 L169.4,7.5 C169.8,7.1 170,6.7 170,6.2 C170,5.9 169.9,5.7 169.8,5.7 L164.4,5.7 L164.4,0.3 Z" id="Shape"></path>
        </g>
    </g>
</svg>