<?xml version="1.0" encoding="UTF-8"?>
<svg width="1440px" height="37px" viewBox="0 0 1440 37" version="1.1" xmlns="http://www.w3.org/2000/svg" xmlns:xlink="http://www.w3.org/1999/xlink">
    <title>wave</title>
    <g id="Page-1" stroke="none" stroke-width="1" fill="none" fill-rule="evenodd">
        <g id="wave" fill="#FFFFFF" fill-rule="nonzero">
            <path d="M0,35.246318 L16,35.976027 C32,36.7608083 64,38.1376176 96,35.246318 C128,32.3550185 160,24.9202483 192,23.5021347 C224,22.0289488 256,26.4347385 288,26.4347385 C320,26.4347385 352,22.0289488 384,22.7586577 C416,23.543439 448,29.326038 480,28.6376334 C512,27.9492287 544,20.5144585 576,16.1499731 C608,11.702879 640,10.3260697 672,13.9470782 C704,17.623159 736,26.4347385 768,27.9079245 C800,29.326038 832,23.543439 864,18.3528679 C896,13.2173693 928,8.81157951 960,11.7441833 C992,14.7318595 1024,24.9202483 1056,24.9615526 C1088,24.9202483 1120,14.7318595 1152,10.2847655 C1184,5.92027998 1216,7.29708928 1248,6.60868463 C1280,5.92027998 1312,2.89129953 1344,2.9326038 C1376,2.89129953 1408,5.92027998 1424,7.33839356 L1440,8.81157951 L1440,0 L1424,0 C1408,0 1376,0 1344,0 C1312,0 1280,0 1248,0 C1216,0 1184,0 1152,0 C1120,0 1088,0 1056,0 C1024,0 992,0 960,0 C928,0 896,0 864,0 C832,0 800,0 768,0 C736,0 704,0 672,0 C640,0 608,0 576,0 C544,0 512,0 480,0 C448,0 416,0 384,0 C352,0 320,0 288,0 C256,0 224,0 192,0 C160,0 128,0 96,0 C64,0 32,0 16,0 L0,0 L0,35.246318 Z" id="Path"></path>
        </g>
    </g>
</svg>